<?xml version="1.0" encoding="utf-8"?>
<!-- Generator: Adobe Illustrator 16.0.4, SVG Export Plug-In . SVG Version: 6.00 Build 0)  -->
<!DOCTYPE svg PUBLIC "-//W3C//DTD SVG 1.1 Tiny//EN" "http://www.w3.org/Graphics/SVG/1.1/DTD/svg11-tiny.dtd" [
	<!ENTITY ns_flows "http://ns.adobe.com/Flows/1.0/">
	<!ENTITY ns_extend "http://ns.adobe.com/Extensibility/1.0/">
	<!ENTITY ns_ai "http://ns.adobe.com/AdobeIllustrator/10.0/">
	<!ENTITY ns_graphs "http://ns.adobe.com/Graphs/1.0/">
]>
<svg version="1.1" baseProfile="tiny" id="Layer_1" xmlns:x="&ns_extend;" xmlns:i="&ns_ai;" xmlns:graph="&ns_graphs;"
	 xmlns="http://www.w3.org/2000/svg" xmlns:xlink="http://www.w3.org/1999/xlink" xmlns:a="http://ns.adobe.com/AdobeSVGViewerExtensions/3.0/"
	 x="0px" y="0px" width="520.059px" height="716.88px" viewBox="0 0 520.059 716.88" xml:space="preserve">
<path fill="#FFEC00" d="M57.839,59.896v3.751c0,11.374-7.744,21.417-27.225,21.417H4.84V0.363h25.773
	c17.908,0,26.015,9.68,26.015,21.417v3.267c0,9.922-4.84,14.883-12.1,17.061v0.968C51.184,44.529,57.839,48.764,57.839,59.896z
	 M29.162,16.457h-5.929v18.392h5.929c6.171,0,8.833-2.662,8.833-8.349v-1.694C37.995,19.119,35.333,16.457,29.162,16.457z
	 M39.205,57.839c0-5.687-2.662-8.349-8.833-8.349h-7.139v19.481h7.139c6.171,0,8.833-2.662,8.833-8.47V57.839z M73.327,0.363
	h111.685v17.062H91.719v16.214h92.325v15.973H91.719v18.392h93.655v17.062H73.327V0.363z M248.656,18.271v66.793h-18.393V18.271
	h-30.25V0.363h78.894v17.908H248.656z M345.334,18.271v66.793h-18.392V18.271h-34.607V0.363h87.605v17.908H345.334z M395.792,0.363
	h53.604v17.062h-35.212v16.214h34.244v15.973h-34.244v18.392h35.575v17.062h-53.967V0.363z M485.21,85.065h-18.393V0.363L491.381,0
	c18.877,0,27.226,12.343,27.226,25.895v4.84c0,11.979-5.687,17.667-13.068,21.296l14.521,32.429v0.605h-19.36l-12.222-27.952h-3.267
	V85.065z M490.171,17.062h-4.961v24.442h4.961c7.14,0,9.802-3.509,9.802-10.648v-2.904
	C499.973,20.934,497.311,17.062,490.171,17.062z"/>
<path fill="#FFEC00" d="M1.815,172.398c1.452,0.363,4.719,0.605,6.655,0.605c7.381,0,9.438-4.235,9.438-11.253v-56.387h18.876
	v59.049c0,13.553-8.47,26.258-27.709,26.258c-2.541,0-4.961-0.242-7.26-0.605V172.398z M108.539,105.363v59.654
	c0,13.552-8.47,26.257-27.709,26.257S53.12,178.569,53.12,165.018v-59.654h18.634v57.839c0,7.019,2.299,11.253,9.075,11.253
	c6.776,0,9.075-4.235,9.075-11.253v-57.839H108.539z M158.147,131.016c0-7.018-2.541-10.89-8.349-10.89
	c-4.84,0-7.865,3.025-7.865,7.381c0,4.235,1.815,7.26,6.534,9.317l9.801,4.114c13.552,5.808,18.392,12.221,18.392,25.29
	c0,14.157-9.438,25.531-26.862,25.531c-15.972,0-27.467-8.833-27.467-27.226h18.029c0,8.107,3.388,10.891,9.68,10.891
	c5.445,0,8.228-3.872,8.228-7.865c0-4.478-1.452-7.381-7.018-9.56l-8.591-3.388c-13.915-5.445-19.239-13.189-19.239-26.621
	c0-13.673,10.043-24.321,26.5-24.321c14.641,0,26.136,8.833,26.136,27.346H158.147z M237.767,123.271v66.793h-18.392v-66.793
	h-30.251v-17.908h78.894v17.908H237.767z M281.93,190.065v-17.062h14.763v-50.579H281.93v-17.062h47.917v17.062h-14.763v50.579
	h14.763v17.062H281.93z M346.181,105.363h65.946v17.062h-47.554v17.061h46.465v15.972h-46.465v34.607h-18.393V105.363z
	 M426.042,190.065v-17.062h14.763v-50.579h-14.763v-17.062h47.917v17.062h-14.763v50.579h14.763v17.062H426.042z M483.033,138.397
	h34.485v18.392h-34.485V138.397z"/>
<path fill="#FFEC00" d="M30.614,279.818c5.082,0,7.865-3.509,7.865-12.826V260.7H56.75v7.865c0,15.972-9.559,28.314-26.5,28.314
	c-18.634,0-26.621-11.858-26.621-28.557v-32.308c0-15.246,8.833-27.467,26.621-27.467c17.667,0,26.5,11.616,26.5,27.831v7.139
	H38.479v-4.961c0-9.075-2.783-12.947-7.744-12.947c-6.292,0-8.712,4.356-8.712,10.891v32.428
	C22.022,275.462,24.442,279.818,30.614,279.818z M102.247,274.979H85.427l-3.63,20.086H63.284l18.15-84.702h25.532l18.271,84.702
	h-19.36L102.247,274.979z M87.968,260.337h11.737l-5.082-28.073H93.05L87.968,260.337z M237.284,228.271v66.793h-18.392v-66.793
	h-89.784v-17.908h197.959v17.908H237.284z M338.802,295.065v-17.062h14.762v-50.579h-14.762v-17.062h47.917v17.062h-14.763v50.579
	h14.763v17.062H338.802z M453.874,270.623c0,13.552-8.47,26.257-27.709,26.257c-19.24,0-27.71-12.705-27.71-26.257v-35.817
	c0-13.552,8.47-26.257,27.71-26.257c19.239,0,27.709,12.705,27.709,26.257V270.623z M417.331,236.863v31.703
	c0,7.018,2.058,11.253,8.834,11.253c6.775,0,8.833-4.235,8.833-11.253v-31.703c0-7.018-2.058-11.253-8.833-11.253
	C419.388,225.609,417.331,229.845,417.331,236.863z M484.607,251.504h-1.815v43.561h-15.367v-84.702h18.998l13.552,43.561h1.694
	v-43.561h15.367v84.702h-18.393L484.607,251.504z"/>
<path fill="#FFEC00" d="M46.707,333.271v66.793H28.314v-66.793H2.42v-17.908h70.182v17.908H46.707z M128.14,365.216h-18.634v34.848
	H91.114v-84.701h18.392v32.67h18.634v-32.67h18.393v84.701H128.14V365.216z M185.857,400.064h-18.392v-84.701L192.029,315
	c18.876,0,27.226,12.342,27.226,25.894v4.84c0,11.979-5.688,17.667-13.068,21.296l14.52,32.429v0.604h-19.36l-12.221-27.951h-3.267
	V400.064z M190.819,332.062h-4.961v24.442h4.961c7.139,0,9.801-3.509,9.801-10.648v-2.904
	C200.62,335.934,197.958,332.062,190.819,332.062z M292.823,375.623c0,13.552-8.47,26.257-27.709,26.257
	c-19.24,0-27.71-12.705-27.71-26.257v-35.817c0-13.552,8.47-26.257,27.71-26.257c19.239,0,27.709,12.705,27.709,26.257V375.623z
	 M256.28,341.863v31.703c0,7.019,2.057,11.253,8.833,11.253c6.775,0,8.833-4.234,8.833-11.253v-31.703
	c0-7.018-2.058-11.253-8.833-11.253C258.337,330.609,256.28,334.845,256.28,341.863z M367.359,315.363v59.654
	c0,13.552-8.471,26.257-27.71,26.257s-27.709-12.705-27.709-26.257v-59.654h18.634v57.839c0,7.019,2.3,11.253,9.075,11.253
	c6.776,0,9.075-4.234,9.075-11.253v-57.839H367.359z M424.349,373.444v-5.324h-11.495v-15.73h28.919v47.674h-13.552l-0.848-7.744
	h-1.452c-2.541,5.809-6.654,9.438-16.456,9.438c-14.278,0-22.99-10.043-22.99-25.047v-36.906c0-13.068,9.196-26.257,27.709-26.257
	c18.271,0,27.71,13.431,27.71,26.862v3.267h-18.393v-1.089c0-7.744-2.057-12.342-9.196-12.342c-6.775,0-9.438,4.598-9.438,11.495
	v32.671c0,7.139,2.903,10.769,9.559,10.769C421.808,385.182,424.349,381.188,424.349,373.444z M498.884,365.216H480.25v34.848
	h-18.393v-84.701h18.393v32.67h18.634v-32.67h18.393v84.701h-18.393V365.216z"/>
<path fill="#FFEC00" d="M46.949,566.867h1.452l4.477-41.504h16.819l-10.406,84.701H42.835l-7.624-37.752H33.76l-7.865,37.752H10.527
	L0,525.363h16.698l4.598,41.504h1.452l6.292-36.664h11.737L46.949,566.867z M85.305,610.064v-17.061h14.762v-50.579H85.305v-17.062
	h47.917v17.062h-14.762v50.579h14.762v17.061H85.305z M205.822,580.419c0,20.329-10.648,29.646-29.041,29.646H153.67v-84.701h23.111
	c18.634,0,29.041,9.075,29.041,27.951V580.419z M172.062,593.004h5.445c5.687,0,9.559-2.904,9.559-11.254v-28.919
	c0-7.502-3.872-10.406-9.559-10.406h-5.445V593.004z M330.21,543.271v66.793h-18.392v-66.793h-89.784v-17.908h197.96v17.908H330.21z
	 M498.884,575.216h-41.866v34.849h-18.393v-84.701h18.393v32.671h41.866v-32.671h18.393v84.701h-18.393V575.216z"/>
<g>
	<path fill="#FFEC00" d="M0,630.363h19.36l9.559,59.896h1.331l9.559-59.896h18.514l-16.94,84.701H17.062L0,630.363z"/>
	<path fill="#FFEC00" d="M98.735,694.979H81.916l-3.63,20.086H59.772l18.15-84.701h25.531l18.271,84.701h-19.36L98.735,694.979z
		 M84.457,680.337h11.737l-5.083-28.072h-1.573L84.457,680.337z"/>
	<path fill="#FFEC00" d="M148.828,715.064h-18.392v-84.701L154.999,630c18.876,0,27.226,12.342,27.226,25.895v4.84
		c0,11.979-5.687,17.666-13.068,21.297l14.52,32.428v0.605h-19.36l-12.221-27.951h-3.267V715.064z M153.789,647.062h-4.961v24.442
		h4.961c7.139,0,9.801-3.51,9.801-10.648v-2.904C163.59,650.934,160.928,647.062,153.789,647.062z"/>
	<path fill="#FFEC00" d="M192.386,715.064v-17.062h6.05v-50.579h-6.05v-17.061h30.492v17.061h-6.05v50.579h6.05v17.062H192.386z"/>
	<path fill="#FFEC00" d="M269.946,694.979h-16.819l-3.63,20.086h-18.513l18.15-84.701h25.532l18.271,84.701h-19.36L269.946,694.979z
		 M255.668,680.337h11.737l-5.082-28.072h-1.573L255.668,680.337z"/>
	<path fill="#FFEC00" d="M330.082,648.271v66.793h-18.393v-66.793h-17.182v-17.908h52.757v17.908H330.082z"/>
	<path fill="#FFEC00" d="M357.667,715.064v-17.062h6.051v-50.579h-6.051v-17.061h30.493v17.061h-6.051v50.579h6.051v17.062H357.667z
		"/>
	<path fill="#FFEC00" d="M455.314,690.622c0,13.552-8.471,26.258-27.71,26.258s-27.709-12.706-27.709-26.258v-35.816
		c0-13.553,8.47-26.258,27.709-26.258s27.71,12.705,27.71,26.258V690.622z M418.771,656.862v31.703
		c0,7.018,2.058,11.253,8.833,11.253c6.776,0,8.833-4.235,8.833-11.253v-31.703c0-7.018-2.057-11.253-8.833-11.253
		C420.829,645.609,418.771,649.845,418.771,656.862z"/>
	<path fill="#FFEC00" d="M484.837,671.504h-1.814v43.561h-15.367v-84.701h18.997l13.553,43.561h1.693v-43.561h15.367v84.701h-18.392
		L484.837,671.504z"/>
</g>
<path fill="#FFEC00" d="M41.504,478.444v-5.324H30.009v-15.73h28.919v47.675H45.376l-0.847-7.744h-1.452
	c-2.541,5.809-6.655,9.438-16.456,9.438c-14.278,0-22.991-10.043-22.991-25.048v-36.905c0-13.068,9.196-26.258,27.709-26.258
	c18.271,0,27.71,13.432,27.71,26.863v3.267H40.657v-1.089c0-7.744-2.057-12.343-9.196-12.343c-6.776,0-9.438,4.599-9.438,11.496
	v32.67c0,7.14,2.904,10.77,9.559,10.77C38.963,490.182,41.504,486.188,41.504,478.444z M85.305,420.363h18.392v67.641h120.639
	v17.061H85.305V420.363z M256.037,505.064v-30.613l-19.965-54.088h19.36l9.801,32.429h0.484l10.285-32.429h18.392l-19.965,53.725
	v30.977H256.037z M334.807,477.113v27.951h-18.393v-84.701h24.563c18.876,0,27.226,12.705,27.226,26.258v4.84
	c0,16.214-8.35,25.652-27.226,25.652H334.807z M339.768,436.94h-4.961v24.685h4.961c7.139,0,9.801-3.509,9.801-10.648v-3.146
	C349.569,440.812,346.907,436.94,339.768,436.94z M498.884,470.216h-88.332v34.849h-18.392v-84.701h18.392v32.671h88.332v-32.671
	h18.393v84.701h-18.393V470.216z"/>
</svg>
